<?xml version="1.0" encoding="UTF-8" standalone="no"?>
<svg id="steamLogoSVG"
     xmlns="http://www.w3.org/2000/svg"
     xmlns:svg="http://www.w3.org/2000/svg"
     version="1.1"
     width="1000" height="1000"
     viewBox="0 0 1000 1000">
  <defs>
    <linearGradient id="steamGradient" x1="0%" y1="0%" x2="0%" y2="100%">
      <stop offset="0%" stop-color="black" />
      <stop offset="100%" stop-color="blue" />
    </linearGradient>
  </defs>
  <path id="handle circles"
        fill="logoMain0"
        d="M 662.00,234.42
           C 677.19,232.57 696.52,235.52 711.00,240.33
             727.50,245.81 742.85,253.81 756.00,265.28
             777.55,284.09 790.49,305.35 797.37,333.00
             801.49,348.31 802.26,354.23 801.00,375.00
             800.85,387.78 793.92,412.54 788.19,424.00
             775.54,449.31 753.18,470.65 728.00,483.24
             709.89,492.29 689.15,496.23 669.00,496.00
             621.07,495.44 575.26,466.18 554.26,423.00
             548.67,411.50 543.82,392.78 542.06,380.00
             542.06,380.00 541.91,357.00 541.91,357.00
             543.14,339.44 547.04,321.86 554.97,306.00
             571.64,272.66 602.35,248.49 638.00,238.43
             645.94,236.19 653.90,235.58 662.00,234.42 Z
           M 666.00,265.28
           C 655.95,266.73 650.18,266.79 640.00,270.03
             624.91,274.83 607.60,287.15 597.29,299.00
             555.13,347.48 570.27,425.94 628.00,454.73
             644.24,462.83 667.06,465.92 685.00,463.71
             698.59,462.04 713.52,457.13 725.00,449.66
             733.00,444.45 743.63,435.44 749.48,428.00
             784.15,383.99 776.79,319.20 732.00,285.13
             721.73,277.32 714.32,273.21 702.00,269.35
             692.30,266.31 676.12,264.34 666.00,265.28 Z
           M 308.00,592.00
           C 317.59,588.86 329.91,586.12 340.00,586.00
             360.65,585.76 380.92,589.71 399.00,600.15
             414.32,609.01 426.69,621.23 436.31,636.00
             451.67,659.60 453.31,677.79 453.00,705.00
             452.86,716.42 448.29,733.75 443.24,744.00
             434.72,761.31 421.84,776.71 406.00,787.79
             399.67,792.22 394.95,794.28 388.00,797.28
             374.50,803.10 361.72,808.04 335.00,806.17
             306.11,803.02 291.62,798.28 269.00,777.17
             258.51,767.68 251.79,758.98 246.00,746.00
             246.00,746.00 294.00,765.30 294.00,765.30
             307.15,771.24 321.31,777.82 336.00,778.00
             360.64,778.28 378.22,771.34 396.00,753.99
             399.24,750.83 402.54,747.64 405.29,744.00
             425.77,716.39 426.01,674.57 405.29,647.00
             385.43,620.45 360.61,615.43 332.00,603.15
             325.99,600.57 312.73,595.43 308.00,592.00 Z" />
  <path id="handles"
        fill="logoMain1"
        d="M 0.00,467.00
           C 5.60,468.01 260.18,574.06 260.02,574.05
             286.46,552.75 322.30,546.55 350.82,547.98
             350.82,547.98 474.16,368.00 474.16,368.00
             474.16,368.00 475.87,335.32 478.88,322.21
             489.36,278.00 512.47,240.28 548.00,211.46
             577.88,187.22 613.75,172.81 652.00,169.04
             652.00,169.04 676.37,167.17 689.00,169.04
             703.15,170.52 720.60,174.02 734.00,178.69
             742.67,181.72 750.81,185.65 759.00,189.75
             776.01,198.28 794.65,211.44 807.96,225.01
             828.34,245.81 843.99,270.58 853.69,298.00
             859.65,314.84 864.97,336.09 865.00,354.00
             865.04,376.99 865.58,387.97 860.12,411.00
             846.48,468.43 808.18,516.82 755.00,542.74
             732.83,553.55 704.18,564.08 666.00,562.72
             662.98,563.80 490.02,690.09 490.02,690.09
             490.02,690.09 489.38,716.84 484.37,733.00
             472.09,782.36 436.38,821.01 388.00,837.00
             377.52,840.46 361.88,843.69 337.00,844.00
             291.46,843.93 244.99,815.72 220.69,778.00
             215.04,769.22 202.35,743.83 197.69,725.50
             195.69,723.59 26.67,653.03 21.00,652.00
             21.00,652.00 0.03,563.12 0.00,541.00
             0.00,541.00 0.00,467.00 0.00,467.00 Z
           M 657.00,233.28
           C 610.39,240.13 574.99,264.43 553.75,307.00
             546.57,321.40 541.03,340.84 541.00,357.00
             540.97,376.91 540.93,389.61 547.69,409.00
             561.20,447.73 592.12,478.15 631.00,491.00
             639.86,493.93 652.71,496.89 662.00,497.00
             662.00,497.00 680.00,497.00 680.00,497.00
             695.66,496.98 717.17,490.94 731.00,483.68
             748.39,474.56 761.32,464.26 773.74,449.00
             815.96,397.10 812.48,316.96 764.00,270.04
             735.03,242.01 696.85,229.58 657.00,233.28 Z
           M 660.00,267.21
           C 686.93,265.10 699.67,269.73 710.00,274.15
             720.21,278.52 729.83,284.51 738.00,292.09
             777.58,328.79 779.97,390.52 744.71,431.00
             736.26,440.70 723.69,449.34 712.00,454.69
             699.59,460.38 683.62,463.15 670.00,463.00
             659.86,462.88 645.47,459.85 636.00,456.19
             625.69,452.20 615.00,445.60 607.00,437.96
             595.73,427.20 588.33,417.51 582.45,403.00
             565.13,360.23 578.26,311.52 616.00,284.43
             629.84,274.50 643.36,269.94 660.00,267.21 Z
           M 245.00,744.00
           C 246.76,753.36 255.66,765.09 262.09,772.00
             279.94,791.20 309.19,807.68 336.00,808.00
             336.00,808.00 350.00,808.00 350.00,808.00
             368.54,807.97 389.54,800.26 405.00,790.30
             433.77,771.77 454.95,736.68 455.00,702.00
             455.00,702.00 455.00,688.00 455.00,688.00
             454.86,676.03 450.07,658.70 444.75,648.00
             435.45,629.26 424.49,615.23 407.00,603.34
             387.97,590.41 364.96,583.74 342.00,584.00
             327.83,584.17 318.13,588.00 305.00,591.00
             307.47,594.98 307.04,593.85 338.00,607.01
             362.74,617.22 387.18,624.41 403.84,647.00
             413.09,659.53 419.81,676.28 420.00,692.00
             420.39,725.49 404.26,753.12 374.00,768.25
             363.47,773.51 351.86,776.66 340.00,776.66
             334.35,776.66 324.48,775.13 319.00,773.57
             319.00,773.57 264.00,751.20 264.00,751.20
             258.02,748.80 251.21,745.16 245.00,744.00 Z" />
  <path id="outer section"
        fill="url(#steamGradient)"
        d="M 23.00,654.00
           C 23.00,654.00 196.49,726.21 196.49,726.21
             198.83,728.15 201.42,740.29 202.67,744.00
             233.20,818.66 291.94,845.46 338.00,846.00
             390.17,846.61 436.26,822.59 465.33,779.00
             479.45,761.24 488.94,723.94 489.91,710.00
             489.91,710.00 490.24,689.83 490.24,689.83
             490.24,689.83 666.00,563.60 666.00,563.60
             666.00,563.60 694.28,563.19 711.00,559.12
             754.27,548.86 789.28,528.84 818.71,495.00
             874.17,431.25 882.39,339.05 840.57,266.00
             828.26,244.49 810.37,224.06 791.00,208.67
             763.41,186.74 728.85,172.54 694.00,167.48
             694.00,167.48 661.09,166.50 661.09,166.50
             648.37,167.09 626.81,171.46 617.00,174.29
             576.08,186.09 542.08,209.49 515.79,243.00
             515.79,243.00 496.64,268.74 487.80,292.00
             480.94,308.63 474.21,332.98 474.00,351.00
             473.96,354.92 475.26,365.07 474.24,368.38
             474.24,368.38 353.28,544.57 350.82,545.98
             349.02,547.00 346.99,546.96 345.00,547.00
             323.53,547.39 308.09,550.24 288.00,558.20
             276.91,562.59 260.36,573.06 260.36,573.06
             260.36,573.06 1.99,466.53 0.70,463.58
             -0.88,460.57 6.20,411.00 6.20,411.00
             6.20,411.00 17.42,361.00 17.42,361.00
             25.42,332.25 40.71,294.03 55.14,268.00
             93.73,195.93 156.27,132.54 182.00,111.32
             182.00,111.32 293.72,12.54 460.00,0.00
             460.00,0.00 542.00,0.00 542.00,0.00
             760.20,21.18 867.46,156.27 888.68,182.00
             990.12,298.48 999.86,445.43 1000.00,457.00
             1000.00,457.00 1000.00,541.00 1000.00,541.00
             1000.32,655.88 920.27,802.74 846.88,861.40
             751.23,957.16 619.68,998.93 541.00,1000.00
             541.00,1000.00 457.00,1000.00 457.00,1000.00
             266.39,998.03 71.49,830.98 23.00,654.00 Z" />
</svg>
